# xmcd
#
# Track frame offsets: 
#        183
#        18658
#        31570
#        54413
#        66630
#        82328
#        94823
#        105128
#        117353
#        131280
#        142868
#        157225
#        169765
#        183533
#        195858
#        207083
#        219520
#
# Disc length: 3123 seconds
#
# Revision: 0
# Processed by: cddbd v1.5.2PL0 Copyright (c) Steve Scherf et al.
# Submitted via: ExactAudioCopy v0.95b4
#
DISCID=e70c3111
DTITLE=Various Artist - 16 Great Songs
DYEAR=1991
DGENRE=Blues
TTITLE0=Muddy Waters - Baby Please Don't Go
TTITLE1=Howlin' Wolf - Ain't Superstious
TTITLE2=Muddy Waters - Who's Gonna Be Your Sweet Man When I'm Gone
TTITLE3=Howlin' Wolf - Louise
TTITLE4=Muddy Waters - I Can't Be Satisfied
TTITLE5=Howlin' Wolf - Nature
TTITLE6=Muddy Waters - Mean Red Spider
TTITLE7=Howlin' Wolf - Streamline Woman
TTITLE8=Muddy Waters - You Can't Lose What You Ain't Never Had
TTITLE9=Howlin' Wolf - My Country Sugar Mama
TTITLE10=Muddy Waters - You Gonna Need My Help
TTITLE11=Howlin' Wolf - I Better Go Now
TTITLE12=Muddy Waters - Sad Letter
TTITLE13=Howlin' Wolf - Goin' Back Home
TTITLE14=Muddy Waters - I Can't Call Her Suger
TTITLE15=Howlin' Wolf - Cause Of It All
TTITLE16=Muddy Waters - Walkin' Thru The Park
EXTD=
EXTT0=
EXTT1=
EXTT2=
EXTT3=
EXTT4=
EXTT5=
EXTT6=
EXTT7=
EXTT8=
EXTT9=
EXTT10=
EXTT11=
EXTT12=
EXTT13=
EXTT14=
EXTT15=
EXTT16=
PLAYORDER=
